<?xml version="1.0" encoding="utf-8"?>
<!-- Generator: Adobe Illustrator 24.1.2, SVG Export Plug-In . SVG Version: 6.00 Build 0)  -->
<svg version="1.1" id="Layer_1" xmlns="http://www.w3.org/2000/svg" xmlns:xlink="http://www.w3.org/1999/xlink" x="0px" y="0px"
	 viewBox="0 0 256 256" style="enable-background:new 0 0 256 256;" xml:space="preserve">
<style type="text/css">
	.st0{fill:none;}
	.st1{fill:none;stroke:#FEBD19;stroke-width:16;stroke-linecap:round;stroke-linejoin:round;}
</style>
<rect class="st0" width="256" height="256"/>
<line class="st1" x1="216" y1="128" x2="216" y2="176"/>
<line class="st1" x1="192" y1="152" x2="240" y2="152"/>
<line class="st1" x1="84" y1="40" x2="84" y2="80"/>
<line class="st1" x1="64" y1="60" x2="104" y2="60"/>
<line class="st1" x1="168" y1="184" x2="168" y2="216"/>
<line class="st1" x1="152" y1="200" x2="184" y2="200"/>
<path class="st1" d="M37.7,186.3L186.4,37.6c3.1-3.1,8.2-3.1,11.3,0l20.7,20.7c3.1,3.1,3.1,8.2,0,11.3L69.7,218.3
	c-3.1,3.1-8.2,3.1-11.3,0l-20.7-20.7C34.6,194.5,34.6,189.5,37.7,186.3z"/>
<line class="st1" x1="144" y1="80" x2="176" y2="112"/>
</svg>
