<svg xmlns="http://www.w3.org/2000/svg" viewBox="0 0 30.5 19"><defs><style>.cls-1,.cls-2{stroke:#febd19;stroke-miterlimit:10;}.cls-1{fill-rule:evenodd;}</style></defs><g id="Layer_2" data-name="Layer 2"><g id="svg2"><g id="layer1"><path id="path12668" class="cls-1" d="M8.47,3.05,8,4l2.1,1h2.12V4H10.37Z"/><path id="path12670" class="cls-1" d="M13.82,3a2.5,2.5,0,0,0-2.08,1.11h0L9.34,7.46a.51.51,0,0,0,.12.7.52.52,0,0,0,.29.09h2.47a1.5,1.5,0,0,0,1.25-.67l.4-.61a.5.5,0,0,1,.42-.22H15a.57.57,0,0,1,.28.08l7.64,5.1A.75.75,0,0,1,23.06,13l0,0a.75.75,0,0,1-1,.19l-4-2.42a.5.5,0,0,0-.52.86l4,2.42a1.76,1.76,0,0,0,2.3-.45l0,0a1.76,1.76,0,0,0-.43-2.51L15.78,6A1.55,1.55,0,0,0,15,5.75h-.66A1.49,1.49,0,0,0,13,6.42L12.63,7a.49.49,0,0,1-.41.22H10.73l1.83-2.57h0A1.5,1.5,0,0,1,13.82,4H17a1.4,1.4,0,0,1,.41.06l2.86.82a1.55,1.55,0,0,0,1.08-.1L22,4.45a.5.5,0,0,0,.24-.67.49.49,0,0,0-.66-.24h0l-.65.33a.46.46,0,0,1-.36,0L17.66,3.1A2.3,2.3,0,0,0,17,3Z"/><path id="path12672" class="cls-1" d="M25.46,9.09,23,10.84l.58.82L26,9.91Z"/><path id="path12674" class="cls-1" d="M5.1,8.9l-.7.7,2,2,.7-.7Z"/><path id="path12676" class="cls-2" d="M9.91,10.28a1.52,1.52,0,0,0-.94.64l-2,3A1.49,1.49,0,0,0,7.42,16h0l0,0a1.49,1.49,0,0,0,2.05-.43l2-3a1.48,1.48,0,0,0-.42-2.05l-.05,0a1.45,1.45,0,0,0-1.12-.21Zm.57,1.05,0,0a.46.46,0,0,1,.14.66l-2,3a.47.47,0,0,1-.67.14l0,0a.47.47,0,0,1-.14-.67l2-3a.47.47,0,0,1,.67-.14Z"/><path id="path12678" class="cls-2" d="M11.05,12.23a1.47,1.47,0,0,0-1,.65L8.73,15a1.5,1.5,0,0,0,2.51,1.64l1.37-2.09a1.5,1.5,0,0,0-1.56-2.29Zm.58,1a.48.48,0,0,1,.14.69L10.4,16.06a.49.49,0,0,1-.69.15.48.48,0,0,1-.14-.69l1.37-2.1a.48.48,0,0,1,.69-.14Z"/><path id="path12680" class="cls-2" d="M12.38,13.78a1.53,1.53,0,0,0-1,.65l-.89,1.38A1.52,1.52,0,0,0,11,17.89a1.5,1.5,0,0,0,2.07-.45L14,16.06A1.5,1.5,0,0,0,13.51,14,1.48,1.48,0,0,0,12.38,13.78ZM13,14.83a.48.48,0,0,1,.15.69l-.89,1.38a.5.5,0,0,1-.84-.54L12.27,15A.48.48,0,0,1,13,14.83Z"/><path id="path12682" class="cls-2" d="M7.54,10.27a1.49,1.49,0,0,0-1,.65L5.7,12.3a1.5,1.5,0,1,0,2.52,1.63l.89-1.38a1.49,1.49,0,0,0-1.57-2.28Zm.59,1a.5.5,0,0,1,.14.7l-.89,1.38a.5.5,0,1,1-.83-.55l.89-1.38a.49.49,0,0,1,.69-.15Z"/><path id="path12684" class="cls-1" d="M16.73,12.75a.49.49,0,0,0-.48.51.47.47,0,0,0,.23.41l2.82,1.76A2,2,0,0,0,22,14.91l.43-.59a.5.5,0,0,0-.8-.61v0l-.43.59a1,1,0,0,1-1.34.26L17,12.83a.44.44,0,0,0-.29-.08Z"/><path id="path12686" class="cls-1" d="M15.71,14.75a.5.5,0,0,0-.47.53.52.52,0,0,0,.26.41L17.79,17a2.07,2.07,0,0,0,2.69-.58l.44-.61a.5.5,0,1,0-.79-.61l0,0-.44.61a1.06,1.06,0,0,1-1.39.3L16,14.81a.49.49,0,0,0-.29-.06Z"/><path id="path12688" class="cls-1" d="M13.43,16.3l-.36.94,3,1.15a1.74,1.74,0,0,0,2.07-.67l.44-.67-.84-.55-.44.67a.73.73,0,0,1-.87.28Z"/><path id="path12690" class="cls-1" d="M6.23.5a.49.49,0,0,0-.4.23L.58,9a.5.5,0,0,0,.15.69l0,0,2.75,1.5A.51.51,0,0,0,4.17,11L9.42,3a.51.51,0,0,0-.15-.7h0L6.51.57A.53.53,0,0,0,6.23.5Zm.18,1.18L8.3,2.85,3.59,10.09l-1.88-1Z"/><path id="path12692" class="cls-1" d="M24.25.5A.59.59,0,0,0,24,.57l-2.75,1.7a.5.5,0,0,0-.16.69h0L26.33,11a.51.51,0,0,0,.66.17l2.75-1.5a.51.51,0,0,0,.2-.68l0,0L24.67.73A.5.5,0,0,0,24.25.5Zm-.16,1.18,4.7,7.39-1.88,1L22.2,2.85Z"/></g></g></g></svg>