<svg xmlns="http://www.w3.org/2000/svg" viewBox="0 0 60 59.75"><defs><style>.cls-1{fill:none;stroke:#febd19;stroke-linecap:round;stroke-linejoin:round;stroke-width:2px;}</style></defs><g id="Layer_2" data-name="Layer 2"><g id="Layer_1-2" data-name="Layer 1"><g id="Page-1"><g id="_020---Star" data-name="020---Star"><ellipse id="Oval" class="cls-1" cx="30" cy="29.88" rx="29" ry="28.88"/><ellipse id="Oval-2" data-name="Oval" class="cls-1" cx="30" cy="29.88" rx="25" ry="24.88"/><path id="Shape" class="cls-1" d="M31,16.5l3.14,6.73a1.08,1.08,0,0,0,.82.61l7.12,1.09a1.1,1.1,0,0,1,.62,1.85l-5.22,5.36a1.13,1.13,0,0,0-.3.94L38.4,40.6a1.1,1.1,0,0,1-1.61,1.14l-6.26-3.48a1.11,1.11,0,0,0-1.06,0l-6.26,3.48A1.1,1.1,0,0,1,21.6,40.6l1.23-7.52a1.13,1.13,0,0,0-.3-.94l-5.22-5.36a1.1,1.1,0,0,1,.62-1.85l7.12-1.09a1.08,1.08,0,0,0,.82-.61L29,16.5a1.09,1.09,0,0,1,2,0Z"/></g></g></g></g></svg>